PathFileType	4	(X/Y/Z)	pose_F01_0-87.trc
DataRate	CameraRate	NumFrames	NumMarkers	Units	OrigDataRate	OrigDataStartFrame	OrigNumFrames
30	30	9	21	m	30	17	87
Frame#	Time	CHip			RHip			RKnee			RAnkle			RBigToe			RSmallToe			RHeel			LHip			LKnee			LAnkle			LBigToe			LSmallToe			LHeel			Neck			Nose			RShoulder			RElbow			RWrist			LShoulder			LElbow			LWrist			
		X1	Y1	Z1	X2	Y2	Z2	X3	Y3	Z3	X4	Y4	Z4	X5	Y5	Z5	X6	Y6	Z6	X7	Y7	Z7	X8	Y8	Z8	X9	Y9	Z9	X10	Y10	Z10	X11	Y11	Z11	X12	Y12	Z12	X13	Y13	Z13	X14	Y14	Z14	X15	Y15	Z15	X16	Y16	Z16	X17	Y17	Z17	X18	Y18	Z18	X19	Y19	Z19	X20	Y20	Z20	X21	Y21	Z21	
17	0.5666666666666667	-0.23593809106856464	1.8333996525799774	-0.5836701440460484	-0.2531606520237268	1.8333959171376986	-0.5219737729187401																-0.2228042483845119	1.8349860516031775	-0.6441545086963367	-0.22191164110268624	1.6880626420509337	-0.6152654292882278													-0.2334589377355158	1.9956105018446053	-0.6255616025622507	-0.2268795738382074	2.047191305544151	-0.5518502797939091	-0.2565347229516413	1.9934226970123425	-0.5378560163382987	-0.2706339122578739	1.9235371188920198	-0.474080822472368	-0.2614077642237497	1.8946600667149278	-0.37363339110733734	-0.2025529476270239	1.9995908986026307	-0.7147067520015435	-1.177400729313091	1.823449597139593	0.22776162156550825	-0.18322162938891523	1.8379027545584334	-0.6943761087490818
18	0.6	-0.23693294036371088	1.8327950997781977	-0.5825845454321914	-0.2540790892915862	1.8323431419670049	-0.5164679545258402																-0.2224666079776921	1.8338578956090024	-0.6441096472992338	-0.22157474188626977	1.6883565356898471	-0.6142224695260106													-0.23543637021218952	1.9968752330759172	-0.623191340731484	-0.22781588821311533	2.0473210701599243	-0.5549692946976575	-0.25757081038226465	1.9929691195885253	-0.5324263861088371	-0.273464885084531	1.923604080932865	-0.46651336020320333	-0.2632895959261008	1.8927065587620466	-0.3712186409183607	-0.20566850895951175	1.9996391634729347	-0.715364921249643	-1.1692644381419972	1.826339623195152	0.20929636893481707	-0.18541072607975237	1.8552462663264206	-0.6736657439037644
19	0.6333333333333333	-0.23792778965885714	1.832190546976418	-0.5814989468183344	-0.2541961625745988	1.8302391167076286	-0.5163231192254228																-0.22367198197512653	1.833979717338978	-0.6472883712665713	-0.22123784266985333	1.6886504293287605	-0.6131795097637933													-0.23558755362781567	1.9980493246321043	-0.6235744227490536	-0.2259062354918363	2.046069930258508	-0.5573996161830366	-0.25852292840231705	1.9953819027340747	-0.5358820995942515	-0.27146497054582747	1.9295249074492902	-0.46934012993180224	-0.26139474145382363	1.893372454333038	-0.37345925423891607	-0.20776509669697366	2.000603733994289	-0.7131253823885645	-1.1671833815539698	1.8294950847641502	0.20175571147451155	-0.18888169582763925	1.8839210024100037	-0.6725403513557204
20	0.6666666666666666	-0.23737748213094645	1.8315112966821745	-0.5867276508955291	-0.2556375833491938	1.828108077540539	-0.5193410687268568																-0.2206386365235442	1.8306004809640057	-0.6546320970097552	-0.2209009434534369	1.688944322967674	-0.612136550001576													-0.23571182076190633	1.996947653529736	-0.6237618474008245	-0.22576336485166068	2.0423407800889377	-0.5649559774088382	-0.26069073412877364	1.994019493994972	-0.5338542123823176	-0.2725369080462889	1.9287356036362264	-0.46398817658655733	-0.2651580379461358	1.8935387441990676	-0.36920215033375703	-0.20868864081784327	1.999919663431579	-0.71620022138585	-1.163357740319656	1.8296699481266252	0.19277024030509737	-0.18186070433458312	1.9158763089195632	-0.6749656713202815
21	0.7	-0.23921514044660885	1.8342799385652253	-0.5933359999930226	-0.25639877320293974	1.8324223225247234	-0.5230848046964488																-0.22366261910540178	1.8335285156285834	-0.6558438152550781	-0.2204469209086011	1.6941944099078432	-0.6172834422064677													-0.23746607739083356	1.9957076796142301	-0.6296175788700499	-0.22566866281240341	2.0397916907267652	-0.5732696751701768	-0.2596539086809007	1.9918944902839502	-0.5388075385906457	-0.2713157795866276	1.9307752525544262	-0.4694728023407124	-0.26316699605827676	1.8921733584988867	-0.3710673248446119	-0.21040834817437148	1.9989369537880737	-0.7220873574216452	-1.1913456463283996	1.8336202763363596	0.24868378198660684	-1.407256315704197	1.8599394023252724	0.6122050373627002
22	0.7333333333333333	-0.23776056748181684	1.8348326108164852	-0.5991203106471032	-0.2541484496250697	1.8343829840556534	-0.5342683085105899																-0.22206599022887652	1.8338914324096598	-0.6615171651118231	-0.22552311659059923	1.6895899393515048	-0.6372318064724062													-0.23603065952645705	1.9972128227838324	-0.6438351846256875	-0.2222071223078035	2.040623506103701	-0.5891797432140254	-0.25947701825569863	1.9947610723342473	-0.5561755918168912	-0.27049561945623735	1.9257264038726793	-0.4747400492380134	-0.2576917636760769	1.8947407059446009	-0.38665280788438877	-0.20851870926765917	2.0005559908744797	-0.7361875703399112	-1.2415019793174216	1.8380881367689115	0.3377997477290418	-0.19872247492096778	1.9812437466092234	-0.6564690725313392
23	0.7666666666666667	-0.23801060002936852	1.8333048335971254	-0.6076584952123735	-0.2537075693353231	1.832048282966778	-0.5480569116634226																-0.22085584268207462	1.83622343606199	-0.6757536066808691	-0.22231529453093143	1.6915607519704396	-0.6448571933662083													-0.2365015062939816	1.9985380641372803	-0.6553108735529097	-0.22086397572754565	2.0408463741073124	-0.6029729755777012	-0.2592905659601217	1.99624024569706	-0.5647642934674871	-0.2677966563283984	1.9271606568438415	-0.49114857750252555	-0.25598872958502483	1.9018541122553863	-0.407536578277843	-0.20794351821931015	2.001843101751239	-0.7445330907791894	-1.2591032476911221	1.8448183681457908	0.3685124964763052	-0.20415229426073372	1.9895433051243954	-0.6386722569479484
24	0.8	-0.23953604762093153	1.8343844423748872	-0.6141293782040482	-0.2524347982932473	1.8330926311932318	-0.5536499318965146																-0.2202276150826948	1.8369271900203301	-0.6842887087853089	-0.22251655384636343	1.6920947636198465	-0.6575014161311321													-0.23525653917567682	1.9973844470546211	-0.6602161447892954	-0.22273022980800344	2.0397128829169473	-0.6093047930562402	-0.2602535460717231	1.9935599821324606	-0.5675109239869099	-0.2773886498607143	1.9211359620208737	-0.48505631182407444	-0.25649920475584537	1.9042677415889928	-0.41717922135416596	-0.20644932511781533	2.0032078133136126	-0.7497958096053284	-1.2693357376398409	1.8471866605703384	0.38480073756254846	-0.2053523221025846	1.9920657294397555	-0.6429128844658596
25	0.8333333333333334	-0.23813473515278583	1.8379655006226538	-0.6200529147068349	-0.2528202483778266	1.8370917661182735	-0.5576146272810368																-0.2209706137302992	1.839019981399687	-0.6878557346964251	-0.22357433524134263	1.6924949655739185	-0.6606700145023063													-0.2353186486527958	1.9985916739400142	-0.6608156482404591	-0.22078214184289896	2.0398181599485303	-0.6116212065255102	-0.2583730326308718	1.9949224207044431	-0.570135570340749	-0.2823913282529008	1.9175475220347191	-0.48965270525135934	-0.2571912522608986	1.9167398482156834	-0.4223474738602087	-0.20729811796257372	2.003487980145266	-0.7528648770582872	-1.2602492005422674	1.8396971687349049	0.37244835432775253	-0.20887613861198123	1.9940460717371111	-0.6464628666533726
